<?xml version="1.0" standalone="no"?>
<!DOCTYPE svg PUBLIC "-//W3C//DTD SVG 20010904//EN"
 "http://www.w3.org/TR/2001/REC-SVG-20010904/DTD/svg10.dtd">
<svg version="1.0" xmlns="http://www.w3.org/2000/svg"
 width="4167.000000pt" height="4167.000000pt" viewBox="0 0 4167.000000 4167.000000"
 preserveAspectRatio="xMidYMid meet">
<metadata>
Created by potrace 1.11, written by Peter Selinger 2001-2013
</metadata>
<g transform="translate(0.000000,4167.000000) scale(0.100000,-0.100000)"
fill="#000000" stroke="none">
<path d="M20327 35109 c-2091 -72 -4131 -600 -5992 -1553 -3912 -2002 -6699
-5706 -7524 -10001 -368 -1914 -342 -3903 75 -5800 479 -2177 1470 -4221 2888
-5954 723 -884 1573 -1700 2481 -2383 2135 -1606 4664 -2575 7320 -2808 512
-45 1386 -64 1885 -41 2902 134 5623 1105 7925 2830 807 604 1548 1291 2216
2056 814 932 1515 1987 2065 3110 866 1770 1343 3645 1435 5645 23 499 4 1373
-41 1885 -321 3668 -2049 7064 -4831 9496 -490 429 -954 783 -1514 1154 -2484
1649 -5389 2467 -8388 2364z"/>
</g>
</svg>
